HIERARCHY
ROOT joint_0
{
	OFFSET 0.000000 0.000000 0.000000
	CHANNELS 6 Xposition Yposition Zposition Zrotation Yrotation Xrotation 
	JOINT joint_1
	{
		OFFSET 0.000000 0.000000 0.000000
		CHANNELS 3 Zrotation Yrotation Xrotation
		JOINT joint_2
		{
			OFFSET 3.811170 -8.520760 0.839290
			CHANNELS 3 Zrotation Yrotation Xrotation
			JOINT joint_3
			{
				OFFSET 2.562200 -7.039590 0.000000
				CHANNELS 3 Zrotation Yrotation Xrotation
				JOINT joint_4
				{
					OFFSET 0.157640 -0.433110 2.322550
					CHANNELS 3 Zrotation Yrotation Xrotation
					End Site
					{
						OFFSET 0.000000 0.000000 0.000000
					}
				}
			}
		}
	}
	JOINT joint_5
	{
		OFFSET 0.000000 0.000000 0.000000
		CHANNELS 3 Zrotation Yrotation Xrotation
		JOINT joint_6
		{
			OFFSET -3.848050 -8.780180 0.839290
			CHANNELS 3 Zrotation Yrotation Xrotation
			JOINT joint_7
			{
				OFFSET -2.568260 -7.056230 0.000000
				CHANNELS 3 Zrotation Yrotation Xrotation
				JOINT joint_8
				{
					OFFSET -0.164730 -0.452590 2.363150
					CHANNELS 3 Zrotation Yrotation Xrotation
					End Site
					{
						OFFSET 0.000000 0.000000 0.000000
					}
				}
			}
		}
	}
	JOINT joint_9
	{
		OFFSET 0.028270 2.035590 -0.193380
		CHANNELS 3 Zrotation Yrotation Xrotation
		JOINT joint_10
		{
			OFFSET 0.056720 2.048850 -0.042750
			CHANNELS 3 Zrotation Yrotation Xrotation
			JOINT joint_11
			{
				OFFSET -0.054170 1.746240 0.172020
				CHANNELS 3 Zrotation Yrotation Xrotation
				JOINT joint_12
				{
					OFFSET 0.104070 1.761360 -0.123970
					CHANNELS 3 Zrotation Yrotation Xrotation
					End Site
					{
						OFFSET 0.000000 0.000000 0.000000
					}
				}
			}
			JOINT joint_13
			{
				OFFSET 3.362410 1.200890 -0.311210
				CHANNELS 3 Zrotation Yrotation Xrotation
				JOINT joint_14
				{
					OFFSET 4.983000 -0.000000 -0.000000
					CHANNELS 3 Zrotation Yrotation Xrotation
					JOINT joint_15
					{
						OFFSET 3.483560 -0.000000 -0.000000
						CHANNELS 3 Zrotation Yrotation Xrotation
						JOINT joint_16
						{
							OFFSET 0.715260 -0.000000 -0.000000
							CHANNELS 3 Zrotation Yrotation Xrotation
							End Site
							{
								OFFSET 0.000000 0.000000 0.000000
							}
						}
					}
				}
			}
			JOINT joint_17
			{
				OFFSET -3.136600 1.374050 -0.404650
				CHANNELS 3 Zrotation Yrotation Xrotation
				JOINT joint_18
				{
					OFFSET -5.241900 -0.000000 -0.000000
					CHANNELS 3 Zrotation Yrotation Xrotation
					JOINT joint_19
					{
						OFFSET -3.444170 -0.000000 -0.000000
						CHANNELS 3 Zrotation Yrotation Xrotation
						JOINT joint_20
						{
							OFFSET -0.622530 -0.000000 -0.000000
							CHANNELS 3 Zrotation Yrotation Xrotation
							End Site
							{
								OFFSET 0.000000 0.000000 0.000000
							}
						}
					}
				}
			}
		}
	}
}
MOTION
Frames: 14
Frame Time: 0.031667
4.847296 15.567984 -2.364512 -5.013435 -25.555210 3.808602 -16.491120 19.184720 -53.604990 7.307974 1.831013 4.403781 -13.495195 14.788764 -6.247581 4.209802 21.974855 15.330190 0.217188 1.500234 1.736085 -1.658203 4.092638 -3.783364 3.523120 1.563240 -4.838824 -1.319093 10.326641 -3.085865 66.170425 -58.639849 32.423207 -37.413778 2.292666 16.700814 14.394485 -9.812304 31.388034 8.962233 -5.807254 10.919592 -8.556094 -4.279558 0.036098 34.446077 -16.694885 -74.785893 7.775796 20.414205 14.112289 -13.454486 0.127034 0.095955 84.456769 4.930318 44.892401 -75.292955 27.545487 -55.153598 -4.253555 -18.617272 13.538928 14.262481 -0.136902 -0.110090 
4.817107 15.564921 -2.375835 -4.960369 -25.233309 3.832239 -0.683897 2.875235 -41.798044 -9.806002 7.043956 13.566777 0.635564 -0.941276 0.043068 2.769044 12.521806 26.861535 -3.900761 8.188641 5.627629 0.328890 -0.155952 -2.964230 -1.092270 -1.100136 -15.173763 -0.644441 -3.976268 12.245090 -61.809566 -3.504183 85.054463 13.376907 -29.379067 -17.313411 29.131431 -22.157295 18.467569 5.425818 -5.419467 10.500109 -30.606157 -13.917891 0.213318 78.143891 11.372901 -57.225495 -10.068642 -29.855395 13.580856 -14.435398 0.041303 0.007241 34.449355 50.262995 148.450375 -141.409458 41.107889 -73.411405 6.651421 -31.945549 24.893404 15.358211 -0.215983 -0.240858 
4.786918 15.561857 -2.387158 -4.907456 -24.911741 3.856510 -28.586468 -4.316186 -85.294064 -5.372082 4.496030 37.427109 1.486343 -0.976506 4.145637 3.650052 13.348498 33.509560 24.911971 13.696796 26.161587 -4.850050 24.893495 -19.171865 0.609395 1.554902 -1.001591 -2.243499 -7.380808 20.784453 -37.911934 -12.471051 -96.024456 0.014176 -26.774884 -33.022373 63.481985 -23.698479 5.743200 2.811632 -5.307878 7.147299 8.819579 12.391040 -89.902899 88.834987 -16.401918 -84.292739 33.863612 9.225541 33.637822 -15.424618 -0.042728 -0.055536 -149.776676 5.725985 12.864142 -156.978652 20.673339 -49.606685 1.128288 15.079038 21.055282 16.427317 -0.278463 -0.333942 
4.756367 15.558990 -2.397638 -4.866138 -24.549143 3.883723 -10.090393 -8.161675 -75.331758 1.179766 22.498467 18.733691 -0.932079 -3.336397 -9.592927 4.002867 15.723306 34.580348 1.623163 0.278791 1.600729 -20.007108 -4.765007 41.387190 0.364643 0.873039 -0.403606 -4.134156 5.164240 -20.064644 -87.176000 -3.267845 -37.100670 1.743308 15.360840 -62.584853 28.111261 -20.305594 -13.691395 1.111233 -3.466245 4.684043 8.265184 46.293475 -3.153985 103.744302 -21.891103 -115.849133 -48.127061 -35.356239 55.727477 -16.671785 -0.068159 -0.035814 -82.112097 69.409532 13.279100 -136.566535 22.117665 -49.113841 -3.155945 11.656471 -5.660179 17.862821 -0.313538 -0.357363 
4.725811 15.556126 -2.408110 -4.825040 -24.186731 3.911492 -12.713239 29.250784 -88.425599 20.877726 -23.769716 -23.697835 9.921878 -4.663273 27.709465 0.431888 -6.397104 -40.175752 -8.636393 1.962812 0.664724 5.957148 20.915022 25.836093 9.751001 -22.576298 -11.556263 -2.478028 6.643790 -19.692232 -116.874896 -17.493952 -54.519695 -19.476186 -11.202186 -37.955838 82.040655 -8.343315 -15.609588 1.045278 -2.980835 4.449461 14.309348 2.302319 13.627819 97.172228 6.679001 -76.312144 -50.181997 3.215418 33.181761 -18.091518 -0.052145 -0.000611 -87.904836 38.725168 0.425500 -139.749787 5.123032 -34.782830 -7.632166 8.024564 26.817514 19.599020 -0.338728 -0.371430 
4.695186 15.553324 -2.417671 -4.793570 -23.777342 3.938570 -26.573131 -24.725705 -67.175793 -6.335756 11.615123 4.636740 3.268610 -7.970535 5.338294 3.078653 -9.972428 -43.576177 -17.433973 29.312035 12.258772 -61.824305 39.843309 1.608019 -18.027161 -11.462788 -23.729890 -1.960021 -7.762904 23.124892 33.120405 70.765064 129.568691 -2.504713 -1.159930 -5.526778 63.206046 -10.848408 0.418829 1.478359 -5.583190 7.445388 72.657267 -32.291952 116.643589 72.425951 38.959054 -71.983392 -4.510487 -9.942661 26.630243 -19.574402 -0.006862 0.079190 -58.064215 -0.893159 -45.925187 -126.860840 1.894816 -0.865589 0.960869 15.362478 1.187702 21.427306 -0.358212 -0.334283 
4.664560 15.550523 -2.427211 -4.762252 -23.367880 3.965985 2.707044 26.670682 -25.189309 -1.057139 0.424945 -1.079291 2.569449 -28.667679 3.678636 3.495251 -10.344271 -38.465086 -35.528518 26.117531 32.776704 -23.655537 27.590244 69.543425 57.193949 -56.177776 -63.942490 -2.361048 -2.441199 21.929318 -37.250844 57.947626 52.351009 8.293504 -19.129716 -27.428377 27.825384 -25.846332 -9.266269 2.955010 -7.575509 9.961829 79.271291 -76.370999 -65.748570 47.098663 -6.207388 -65.030287 -5.552057 -5.499902 -4.347876 -21.179308 0.098138 0.203780 -55.561411 -16.318106 -22.780020 -56.850472 5.163031 -0.026714 33.103506 -0.841406 -30.990346 23.382877 -0.370949 -0.261433 
4.634356 15.547652 -2.435450 -4.730384 -22.914324 3.990155 -5.199382 9.650686 -12.467484 23.316700 8.340373 18.955592 -1.116126 -49.124510 10.807853 3.185988 -9.780385 -36.736968 -14.608917 2.011522 -6.649048 -63.626999 2.247434 51.100173 -63.182710 -17.560174 26.374686 -1.260361 -4.989697 18.259508 37.261611 -0.505502 109.939767 5.785566 -17.025037 -21.520157 48.828052 3.708383 23.018471 9.339116 -14.928219 20.381998 136.436761 -60.067840 5.014101 28.442625 -10.999325 -20.189581 19.447203 19.528568 -25.469828 -21.832908 0.113355 0.243362 -26.038594 5.482282 -16.048751 -41.052523 -0.002965 -7.207225 25.771949 39.097822 42.145776 24.114999 -0.381927 -0.247682 
4.604167 15.544780 -2.443646 -4.698308 -22.460527 4.014283 -1.640424 23.820283 -16.938873 30.577036 -16.790601 -20.110785 10.716084 -29.979493 -12.493840 -1.468686 3.122725 -38.625304 -9.514047 3.397189 31.926838 -43.482482 27.648068 58.079804 -43.140059 -39.475747 -17.606377 -0.786364 5.049785 -11.852671 168.156245 40.463440 -119.280124 2.458793 4.592088 8.849613 25.280923 -0.839976 7.655937 8.860071 -22.119064 36.054836 36.202447 -16.821687 138.842770 33.211977 -14.053495 -45.207724 10.519252 16.231488 -31.589396 -22.186446 0.108787 0.265379 -31.937209 6.961483 -16.240603 -105.821335 4.299096 24.433506 26.439822 -8.123439 17.979709 24.507975 -0.413898 -0.262385 
4.574755 15.541664 -2.450464 -4.659977 -21.971764 4.033286 37.519679 46.547520 -4.423492 12.731618 -30.471467 -12.945673 29.740103 -43.348225 -22.737389 3.342477 12.200174 31.405128 -34.971791 28.680712 -23.897289 -60.323679 30.091716 50.309578 -33.090689 -42.853029 35.889575 -0.781308 5.066335 -12.817577 -135.813525 -21.926655 35.945323 -2.995358 -29.704837 -15.247182 56.185595 23.344105 -13.224503 -3.942374 -14.005081 43.142015 86.957930 -46.840103 125.746856 81.636818 2.711724 -105.223925 -29.935561 -24.718770 -20.096639 -22.592664 0.057155 0.252360 -49.385566 -3.222608 -37.873198 -71.937172 -14.279645 13.317439 -4.650213 16.756502 18.475654 24.865305 -0.437055 -0.292767 
4.545377 15.538537 -2.457219 -4.621037 -21.482920 4.051727 13.122865 43.839999 -41.338709 26.947598 -25.546187 1.302642 15.507586 -15.900084 -5.357131 2.737241 11.410655 28.494883 -0.239610 -2.336567 17.079582 -44.295176 -4.013740 80.083704 -5.474080 -39.874053 3.455355 -1.350078 -5.823027 18.429739 -105.106655 4.804433 61.660213 -11.991413 -7.317767 -22.387350 50.161724 30.692634 25.426148 -7.475315 -13.679386 42.991766 72.927354 -60.736454 -179.876233 94.092696 47.085841 -50.311368 12.228475 -11.495408 -18.903917 -22.862194 0.025786 0.221841 -51.126860 -0.367402 -28.425084 -90.660445 -21.410508 11.518570 18.392737 4.317383 -24.170007 25.073287 -0.437902 -0.323336 
4.516542 15.534935 -2.463170 -4.581652 -20.968489 4.067556 -40.785864 63.622455 -48.106204 12.900862 -17.013982 23.130584 -4.660381 -43.832962 29.700687 -0.129799 -2.350881 -23.458302 -14.027967 8.947287 0.845842 -16.501729 28.048321 80.615914 35.177265 -64.936481 -90.625516 -1.007766 5.613982 -14.063517 -58.900003 -17.136089 84.048201 -38.670902 -4.363915 -23.332417 60.369978 9.526193 -14.054568 -1.274461 -19.529361 40.430199 -22.674289 -38.869207 139.260091 88.802815 40.504296 -43.801524 3.823606 15.871337 -34.665675 -23.348851 0.040347 0.226303 -61.721722 7.572924 -27.194601 -73.350015 -14.237028 13.196333 -25.143067 41.952346 -5.659283 25.609868 -0.417181 -0.290233 
4.487737 15.531307 -2.469074 -4.541675 -20.454391 4.082503 -5.286321 34.052086 -26.418116 0.827500 -3.090381 5.418374 1.803057 -36.680283 2.262489 1.169721 -6.117643 -22.547885 -29.114148 4.142518 -9.147820 -31.828927 4.109983 69.620843 -70.701789 -48.675192 77.296715 -0.487141 4.062460 -10.151347 84.207534 50.854718 179.834990 -25.067632 -1.352292 -18.772809 58.733849 -6.534227 -24.905330 0.993759 -25.826288 52.743748 -116.614982 -17.841839 150.906231 29.626257 20.967581 -46.166241 1.943598 -1.358266 -1.575856 -23.753421 0.126437 0.266037 -15.443031 0.746677 -3.105000 -79.465428 -36.902169 24.005610 -12.260149 21.077646 -11.956675 26.101035 -0.395411 -0.245504 
4.458851 15.527076 -2.475104 -4.513051 -19.916304 4.102259 10.178023 31.880490 -19.472975 -26.441047 -45.093861 34.776162 -3.262730 -37.785856 3.214340 2.322330 -8.975711 -28.951095 3.704000 40.236285 -12.130227 -50.528136 25.658916 48.719060 -71.603162 -44.222232 50.905892 -0.426550 -3.237842 10.377260 -134.079979 76.350839 -9.627421 -2.635663 0.371301 13.616950 12.871013 -7.145601 -9.674542 -2.648496 -25.894724 64.576933 78.369687 -65.719013 141.201523 72.877423 -29.567651 -53.868467 3.323286 -25.620213 -66.770288 -23.795595 0.154819 0.302637 -20.117884 4.603813 -7.378955 -55.061250 -22.457920 26.097430 -92.950175 -5.670187 -40.099263 26.241543 -0.401222 -0.211517 
